<svg id="Layer_1" data-name="Layer 1" xmlns="http://www.w3.org/2000/svg" width="375" height="375" viewBox="0 0 375 375"><title>LOGO small reverse</title><path d="M324.3,228H365c-16.6,83.9-88.9,147-175.7,147C90.3,375,10,292.7,10,191.3S90.3,7.5,189.3,7.5a175.4,175.4,0,0,1,81.2,19.9L309.6,0,298.8,45.8A184.1,184.1,0,0,1,365,154.5H324.3A143.5,143.5,0,0,0,288,90.1,159.1,159.1,0,0,0,275.9,79l-16.7,25a113.7,113.7,0,0,1,34.3,50.5H249.9a73.7,73.7,0,0,0-13.2-16.6l-33.9,50.8-2.8,4.5-16.5.2L176.6,179l2.8-4.5,34-51.1a68.7,68.7,0,0,0-24.1-4.3c-38.8,0-70.5,32.4-70.5,72.2s31.7,72.2,70.5,72.2c25.8,0,48.3-14.3,60.6-35.5h43.6c-14.9,44.3-55.9,76.1-104.2,76.1-60.8,0-110.2-50.5-110.2-112.8S128.5,78.4,189.3,78.4a109.1,109.1,0,0,1,47,10.7l16.8-25.2A137.3,137.3,0,0,0,90.6,90.1a145.5,145.5,0,0,0,0,202.3,136.9,136.9,0,0,0,98.7,41.9c37.3,0,72.3-14.9,98.7-41.9A142.4,142.4,0,0,0,324.3,228Z" fill="#fff"/></svg>