<svg id="Layer_1" data-name="Layer 1" xmlns="http://www.w3.org/2000/svg" width="375" height="375" viewBox="0 0 375 375"><title>LOGO small reverse</title><path d="M230.3,10.4a9.8,9.8,0,0,1-3.1,5.6,9.1,9.1,0,0,1-5.9,2.1h-1.4a9.1,9.1,0,0,1-7.6-10.3,9.5,9.5,0,0,1,3.1-5.5A9.4,9.4,0,0,1,221.3,0h1.4A9.2,9.2,0,0,1,230.3,10.4Z" fill="#fff"/><path d="M162.7,367.3a9.5,9.5,0,0,1-3.1,5.5,9.2,9.2,0,0,1-5.9,2.2h-1.4a9.2,9.2,0,0,1-7.6-10.3,9.8,9.8,0,0,1,3.1-5.6,9.1,9.1,0,0,1,5.9-2.1h1.4A9.1,9.1,0,0,1,162.7,367.3Z" fill="#fff"/><path d="M18,155.1a9.1,9.1,0,0,1-3,5.5,9.4,9.4,0,0,1-5.9,2.2H7.7a9.2,9.2,0,0,1-5.9-3.6,9,9,0,0,1,1.4-12.3,9,9,0,0,1,5.9-2.2h1.4a9.4,9.4,0,0,1,5.9,3.6A9.2,9.2,0,0,1,18,155.1Z" fill="#fff"/><path d="M298.7,338.9a8.9,8.9,0,0,1-3.6,6,9,9,0,0,1-5.3,1.7,9.1,9.1,0,0,1-7.4-3.7,9.1,9.1,0,0,1,7.4-14.4,9.2,9.2,0,0,1,7.3,3.7A8.9,8.9,0,0,1,298.7,338.9Z" fill="#fff"/><path d="M42.8,297.1a9.4,9.4,0,0,1-5.4,1.7,9,9,0,0,1-7.3-3.7,9.2,9.2,0,0,1,2-12.7,9.1,9.1,0,0,1,10.7,14.7Z" fill="#fff"/><path d="M94.2,38.8a9.2,9.2,0,0,1-9,7.7,9.2,9.2,0,0,1-7.3-3.7A9.1,9.1,0,0,1,92.6,32.1,8.8,8.8,0,0,1,94.2,38.8Z" fill="#fff"/><path d="M232.5,369.9a9.4,9.4,0,0,1-5.6,4.2l-2.2.2a9,9,0,0,1-8.8-6.9,8.9,8.9,0,0,1,1.1-6.9,9.1,9.1,0,0,1,5.5-4.1l2.2-.2a9.1,9.1,0,0,1,7.8,13.7Z" fill="#fff"/><path d="M17.5,229.4a8.7,8.7,0,0,1-5.6,4.1,7.8,7.8,0,0,1-2.2.3,9.1,9.1,0,0,1-8.8-6.9A9.3,9.3,0,0,1,2,220a8.7,8.7,0,0,1,5.6-4.1,7.8,7.8,0,0,1,2.2-.3,9.2,9.2,0,0,1,8.8,6.9A9.3,9.3,0,0,1,17.5,229.4Z" fill="#fff"/><path d="M158,14.5a9.1,9.1,0,0,1-5.5,4.1l-2.2.2a9,9,0,0,1-8.8-6.9,9,9,0,0,1,1-6.8A9.4,9.4,0,0,1,148.1.9l2.2-.2a9,9,0,0,1,8.8,6.9A8.9,8.9,0,0,1,158,14.5Z" fill="#fff"/><path d="M294.6,40.2a8.9,8.9,0,0,1-7.7,4.4,9.5,9.5,0,0,1-4.7-1.3,9.1,9.1,0,0,1-3.1-12.5,9.2,9.2,0,0,1,7.8-4.4,10.1,10.1,0,0,1,4.7,1.3,9.7,9.7,0,0,1,4.1,5.6A8.8,8.8,0,0,1,294.6,40.2Z" fill="#fff"/><path d="M95.9,344.2a9.2,9.2,0,0,1-7.8,4.4,10.1,10.1,0,0,1-4.7-1.3,9.2,9.2,0,0,1-3-12.5,8.9,8.9,0,0,1,7.7-4.4,9.5,9.5,0,0,1,4.7,1.3A9.1,9.1,0,0,1,95.9,344.2Z" fill="#fff"/><path d="M43.3,92.8a9,9,0,0,1-7.8,4.4,8.5,8.5,0,0,1-4.7-1.3,9,9,0,0,1,4.7-16.8,8.5,8.5,0,0,1,4.7,1.3A9,9,0,0,1,43.3,92.8Z" fill="#fff"/><path d="M281,211.6h28.2A124,124,0,1,1,243.8,76.1l27.1-18.5-7.5,30.9A124,124,0,0,1,309.2,162H281a94.8,94.8,0,0,0-25.1-43.5,74.9,74.9,0,0,0-8.4-7.5L236,127.8A76.2,76.2,0,0,1,259.7,162H229.6a50.1,50.1,0,0,0-9.2-11.3L196.9,185l-1.9,3.1H183.6l-4.8-9.7,1.9-3L204.3,141a48.7,48.7,0,1,0,25.3,70.6h30.1a76.2,76.2,0,1,1-72.1-101.1,75.2,75.2,0,0,1,32.5,7.3l11.6-17A96.6,96.6,0,0,0,119.3,255.1,96.7,96.7,0,0,0,281,211.6Z" fill="#fff"/></svg>