<svg id="Layer_1" data-name="Layer 1" xmlns="http://www.w3.org/2000/svg" width="1040" height="374.5" viewBox="0 0 1040 374.5"><title>LOGO reverse</title><path d="M181.5,48a7.5,7.5,0,0,1-2.5,4.4,7.1,7.1,0,0,1-4.6,1.7h-1.1a7.1,7.1,0,0,1-6-8.1,7.5,7.5,0,0,1,2.5-4.4,7.1,7.1,0,0,1,4.6-1.7h1.1A7.2,7.2,0,0,1,181.5,48Z" fill="#fff"/><path d="M128.2,328.6a7.1,7.1,0,0,1-7.1,6.1H120a7.2,7.2,0,0,1-4.6-2.8,7.2,7.2,0,0,1,1.1-9.7,7.1,7.1,0,0,1,4.6-1.7h1.1A7.1,7.1,0,0,1,128.2,328.6Z" fill="#fff"/><path d="M14.2,161.8a6.9,6.9,0,0,1-2.4,4.3,7.1,7.1,0,0,1-4.6,1.7H6.1a7.2,7.2,0,0,1-4.7-2.8,7.1,7.1,0,0,1-1.3-5.3,7.2,7.2,0,0,1,2.4-4.4,7.3,7.3,0,0,1,4.6-1.7H8.2a7.2,7.2,0,0,1,4.7,2.8A7.5,7.5,0,0,1,14.2,161.8Z" fill="#fff"/><path d="M235.4,306.3a7.2,7.2,0,0,1-2.8,4.7,7.3,7.3,0,0,1-4.2,1.4,7.2,7.2,0,0,1-5.8-2.9,7.3,7.3,0,0,1-1.3-5.3,7.2,7.2,0,0,1,2.8-4.7,7.3,7.3,0,0,1,4.2-1.4,7.1,7.1,0,0,1,7.1,8.2Z" fill="#fff"/><path d="M33.7,273.4a7.1,7.1,0,0,1-4.2,1.4,7.3,7.3,0,0,1-5.8-2.9,7.2,7.2,0,0,1-1.3-5.3,6.9,6.9,0,0,1,2.9-4.7,7.1,7.1,0,0,1,4.2-1.4,7.3,7.3,0,0,1,5.8,2.9A7.2,7.2,0,0,1,33.7,273.4Z" fill="#fff"/><path d="M74.2,70.3A6.8,6.8,0,0,1,71.4,75a7.1,7.1,0,0,1-4.2,1.4,7.3,7.3,0,0,1-5.8-2.9,7.3,7.3,0,0,1,1.5-10,7.4,7.4,0,0,1,4.3-1.4A7.2,7.2,0,0,1,72.9,65,6.9,6.9,0,0,1,74.2,70.3Z" fill="#fff"/><path d="M183.2,330.7a6.9,6.9,0,0,1-4.4,3.2,5,5,0,0,1-1.7.2,7.2,7.2,0,0,1-7-5.4,7.3,7.3,0,0,1,.9-5.4,6.9,6.9,0,0,1,4.4-3.2,4.7,4.7,0,0,1,1.7-.2,7.1,7.1,0,0,1,6.9,5.4A6.8,6.8,0,0,1,183.2,330.7Z" fill="#fff"/><path d="M13.8,220.2a6.9,6.9,0,0,1-4.4,3.2,5,5,0,0,1-1.7.2,7.2,7.2,0,0,1-7-5.4,7.3,7.3,0,0,1,.9-5.4A6.9,6.9,0,0,1,6,209.6a4.7,4.7,0,0,1,1.7-.2,7.1,7.1,0,0,1,6.9,5.4A6.8,6.8,0,0,1,13.8,220.2Z" fill="#fff"/><path d="M124.6,51.2a7.1,7.1,0,0,1-4.5,3.2,4.7,4.7,0,0,1-1.7.2,7.1,7.1,0,0,1-6.9-5.4,6.8,6.8,0,0,1,.8-5.4,7.1,7.1,0,0,1,4.4-3.2,5.2,5.2,0,0,1,1.7-.2,7.2,7.2,0,0,1,7,5.4A7.8,7.8,0,0,1,124.6,51.2Z" fill="#fff"/><path d="M232.2,71.4a7.1,7.1,0,0,1-6.1,3.5,7,7,0,0,1-3.7-1.1,7.2,7.2,0,0,1-2.5-9.8,7.3,7.3,0,0,1,6.2-3.4,7.9,7.9,0,0,1,3.7,1A7.1,7.1,0,0,1,233,66,6.8,6.8,0,0,1,232.2,71.4Z" fill="#fff"/><path d="M75.6,310.5a7.2,7.2,0,0,1-6.2,3.4,7.5,7.5,0,0,1-3.6-1,7.2,7.2,0,0,1-2.5-9.8,7.1,7.1,0,0,1,6.2-3.5,7.2,7.2,0,0,1,6.1,10.9Z" fill="#fff"/><path d="M34.1,112.8a7.1,7.1,0,0,1-6.1,3.5,7,7,0,0,1-3.7-1.1,7,7,0,0,1-2.4-9.8A7.2,7.2,0,0,1,28,102a6.9,6.9,0,0,1,3.7,1A7.2,7.2,0,0,1,34.1,112.8Z" fill="#fff"/><path d="M221.5,206.2h22.2A97.6,97.6,0,1,1,192.1,99.6l21.4-14.5-5.9,24.3a97.8,97.8,0,0,1,36.1,57.8H221.5A75.5,75.5,0,0,0,201.7,133a73.2,73.2,0,0,0-6.6-5.9L186,140.3a60.8,60.8,0,0,1,18.7,26.9H180.9a41.3,41.3,0,0,0-7.2-8.9l-18.5,27-1.5,2.4h-9l-3.8-7.6,1.5-2.4L161,150.7a38.3,38.3,0,1,0,19.9,55.5h23.8a60.1,60.1,0,1,1-56.9-79.5,61.2,61.2,0,0,1,25.7,5.7l9.1-13.3a75.8,75.8,0,1,0,38.9,87.1Z" fill="#fff"/><path d="M354,143.1,365.1,154s-12.7,16.4-37.1,16.4c-27.9,0-49-21.4-49-49.9s21.1-49.8,49-49.8a48.5,48.5,0,0,1,35.7,15.2L352.5,96.7A33.2,33.2,0,0,0,328,86.1c-19.1,0-32.2,15.9-32.2,34.4s13.1,34.4,32.2,34.4A34.3,34.3,0,0,0,354,143.1Z" fill="#fff"/><path d="M469.9,120.5c0,28.5-20.7,49.9-48.8,49.9s-48.9-21.4-48.9-49.9,20.7-49.8,48.9-49.8S469.9,92,469.9,120.5Zm-16.8,0c0-18.5-12.6-34.1-32-34.1s-32,15.6-32,34.1,12.5,34.2,32,34.2S453.1,139.1,453.1,120.5Z" fill="#fff"/><path d="M499.7,72.4,548,138.7V72.4h16.5v96.3H549.6l-48.2-66.2v66.2H484.8V72.4Z" fill="#fff"/><path d="M654.5,143.1l11,10.9s-12.7,16.4-37.1,16.4c-27.9,0-49-21.4-49-49.9s21.1-49.8,49-49.8c23.2,0,35.7,15.2,35.7,15.2L653,96.7a33.3,33.3,0,0,0-24.6-10.6c-19,0-32.1,15.9-32.1,34.4s13.1,34.4,32.1,34.4A34.4,34.4,0,0,0,654.5,143.1Z" fill="#fff"/><path d="M694.8,111.5h38.6v15.6H694.8V153h42.7v15.7H678.2V72.4h58.5V88.1H694.8Z" fill="#fff"/><path d="M753.5,72.4h31.7c19.2,0,32,12.3,32,30,0,14.4-7.7,25.4-21.5,28.9l24.2,37.4H800.6l-22.9-36.3h-7.6v36.3H753.5Zm46.9,30c0-9.5-6.6-14.3-17.2-14.3H770.1v28.6h13.1C793.8,116.7,800.4,111.9,800.4,102.4Z" fill="#fff"/><path d="M852.3,88.1H825.7V72.4h69.8V88.1H868.8v80.6H852.3Z" fill="#fff"/><path d="M354,273l11.1,10.9s-12.7,16.4-37.1,16.4c-27.9,0-49-21.3-49-49.8s21.1-49.9,49-49.9a48.5,48.5,0,0,1,35.7,15.2l-11.2,10.9A33.2,33.2,0,0,0,328,216.1c-19.1,0-32.2,15.8-32.2,34.4s13.1,34.4,32.2,34.4A34.3,34.3,0,0,0,354,273Z" fill="#fff"/><path d="M469.9,250.5c0,28.5-20.7,49.8-48.8,49.8s-48.9-21.3-48.9-49.8,20.7-49.9,48.9-49.9S469.9,222,469.9,250.5Zm-16.8,0c0-18.6-12.6-34.2-32-34.2s-32,15.6-32,34.2,12.5,34.1,32,34.1S453.1,269.1,453.1,250.5Z" fill="#fff"/><path d="M499.7,202.3,548,268.6V202.3h16.5v96.3H549.6l-48.2-66.2v66.2H484.8V202.3Z" fill="#fff"/><path d="M654.5,273l11,10.9s-12.7,16.4-37.1,16.4c-27.9,0-49-21.3-49-49.8s21.1-49.9,49-49.9c23.2,0,35.7,15.2,35.7,15.2L653,226.7a33.3,33.3,0,0,0-24.6-10.6c-19,0-32.1,15.8-32.1,34.4s13.1,34.4,32.1,34.4A34.3,34.3,0,0,0,654.5,273Z" fill="#fff"/><path d="M680.1,202.3h16.6v96.3H680.1Z" fill="#fff"/><path d="M735.6,241.4h38.6v15.7H735.6V283h42.7v15.6H719V202.3h58.5V218H735.6Z" fill="#fff"/><path d="M794.3,202.3h31.8c19.1,0,32,12.4,32,30,0,14.5-7.8,25.5-21.5,28.9l24.1,37.4H841.4l-22.9-36.3h-7.6v36.3H794.3Zm46.9,30c0-9.5-6.6-14.3-17.2-14.3H810.9v28.6H824C834.6,246.6,841.2,241.8,841.2,232.3Z" fill="#fff"/><path d="M939.5,280.2V259.8h-22V244.4h38.2v43.8s-12.2,12.1-35.7,12.1c-28.3,0-50.8-21.3-50.8-49.8s21.8-49.9,50.1-49.9c23.7,0,35.7,14.5,35.7,14.5l-11.3,11s-8-10-24.4-10c-19.4,0-33.2,15.8-33.2,34.4s14.5,34.4,33.9,34.4C933.8,284.9,939.5,280.2,939.5,280.2Z" fill="#fff"/><path d="M989.7,241.4h38.6v15.7H989.7V283h42.7v15.6H973.1V202.3h58.5V218H989.7Z" fill="#fff"/></svg>