<svg xmlns="http://www.w3.org/2000/svg"><symbol id="apple-music" viewBox="0 0 2500 595"><style>.st0{fill:#fff}</style><path d="M394.4 315.4c-.8-48.4 20.1-86 62.6-113-24-34.9-59.4-54.5-106.1-58.9-16.6-1.6-37.9 2.4-63.8 11.9-27.8 10.3-43.5 15.4-47 15.4-7.3 0-21.5-4.3-42.4-13.1-20.9-8.7-38.7-13.1-53.4-13.1-24.7.4-47.8 7.2-69 20.5-21.3 13.3-38.3 31.4-51 54.4C8.1 248.2 0 282.3 0 321.9c0 35.7 6 71.3 18 107 11.2 34.1 25.5 64 42.9 89.8 15.4 23.4 29 40.4 40.6 51.2 16.6 16.6 33.6 24.6 51.1 23.8 11.2-.4 25.9-4.6 44.1-12.5 17-7.5 34-11.3 51-11.3 15.8 0 32.3 3.8 49.3 11.3 18.9 7.9 34.4 11.9 46.4 11.9 17.8-.8 34.4-8.5 49.9-23.2 5.4-4.8 11.3-11.3 17.7-19.6 7.4-9.7 14.4-19.6 21.2-29.7 5.6-8.7 11-17.6 16-26.8 5.4-9.8 10.1-19.9 14.2-30.3 1.9-4.4 3.7-8.8 5.2-13.4s3.1-9.2 4.6-14c-14.3-6.3-27.3-15.3-38.9-26.8-25.6-25.4-38.5-56.7-38.9-93.9zm420.5 106h-2.8L694.4 152.2h-92.5v434.3h80.6V305.2h3.7l98.4 223.3h56.5l98.1-223.3h3.8v281.3h81.5V152.2h-91.9L814.9 421.4zm-493.6-326c20.5-25.8 30.8-53.5 30.8-83.2v-6c0-2-.2-4-.6-6-14.3.8-29.5 5.4-45.6 13.7-16 8.3-29.3 18.9-39.7 31.5-20.9 25-31.3 51.7-31.3 80.3v5.6c0 1.8.2 3.7.6 5.7 32.1 3.2 60.7-10.7 85.8-41.6zm1645.4 56.8h90.6v434.3h-90.6V152.2zm364.3 69c53.7 0 82.1 41.4 82.1 85.9h86.9v-9.2c0-84-64.1-154-169.7-154-113.1 0-180.6 74.4-180.6 201.4v49c0 126.9 66.9 200.4 180.3 200.4 108.4 0 170-71 170-149.9v-9.5h-86.9c0 44.9-27.8 82.1-81.5 82.1-55 0-90-39.1-90-122.8v-49c0-83.3 35.3-124.4 89.4-124.4zm-959.9 205.2c0 58.2-34.1 90.4-84 90.4-50.3 0-84.4-31.8-84.4-90.4V152.2h-90v287c0 92.6 65.6 155.6 174.3 155.6 108.4 0 174.3-63 174.3-155.6v-287H1371v274.2h.1zm390.1-92.9l-64.7-14.6c-38.1-8-58.1-24.8-58.1-50 0-33.4 27.2-54.4 70.9-54.4 49.4 0 74 28.3 76.2 58.9h84.4c-.9-76.7-65-130.1-160.3-130.1-90.3 0-161.5 47.4-161.5 132.7 0 73.8 50 108.1 110 121.2l64 14.9c43.1 9.9 65 24.2 65 53.8 0 33.7-26.9 56.7-77.2 56.7-54.1 0-82.5-28.6-85-60.8H1538c1.3 61.4 41.9 133 167.5 133 105.6 0 170.9-52.5 170.9-137.8.1-78.9-52.7-109.8-115.2-123.5z" class="st0"/></symbol><symbol id="google-play" viewBox="0 0 1584 1318.2"><path fill="#fff" d="M1275.3 642.2c-3.8-15.1-14.4-25-27.5-32.5-38.7-22.1-77.4-44.1-116-66.4-65.1-37.6-130.1-75.5-195.2-113.1l-163.7-94.4-195.7-113.1-154.2-89c-12.3-7.1-24.4-14.8-37.3-20.7-26.6-12.3-47.9-5.6-64.3 16.3-7.5 10-9.6 21.7-9.6 34q.1 247.1 0 494.2v493.1c0 2.2.1 4.3.2 6.4.5 17.4 8.4 30.8 22.3 40.8a24.7 24.7 0 0 0 11.4 4.2c15.2 1.1 29.5-1.7 43-9.6 40.5-23.9 81.3-47.2 122.1-70.8L686 1020.3l183-105.8L1048.6 811q91.2-52.5 182.2-105c10.2-5.8 20.5-11.7 29.4-19.2 13.6-11.5 19.8-26.7 15.1-44.6zM475 218.3L985.2 513 878 619.4 474.5 218.8zm-115.5 915.9V171.6q243 241.1 485 481.3zm117.3-48.2l-.7-.7 402.1-399.9 106.3 108.1zm728.1-420.2l-173.2 100.5c-2.5 1.5-4 1.5-6.3-.7Q970.6 711.1 915.6 657a39.5 39.5 0 0 0-3.5-2.9l114.7-116.8 200.4 115.5z"/></symbol><symbol id="soundcloud-logo" viewBox="0 0 93 53"><style>.st0{fill:#fff}</style><path d="M1.1 24.2c-.2 0-.3.1-.4.4L0 29.7l.7 5.1c0 .2.2.4.4.4s.3-.1.4-.4l.8-5.1-.8-5.2c-.1-.2-.3-.3-.4-.3zm3.8-2.9c0-.2-.2-.4-.4-.4s-.4.2-.4.4l-.9 8.4.9 8.2c0 .2.2.4.4.4s.4-.2.4-.4l1-8.2-1-8.4zm14.4-7.7c-.4 0-.7.3-.7.7l-.7 15.4.7 9.9c0 .4.3.7.7.7.4 0 .7-.3.7-.7l.8-9.9-.8-15.4c0-.4-.3-.7-.7-.7zM11.8 19c-.3 0-.5.2-.5.5l-.8 10.2.8 9.8c0 .3.3.5.5.5.3 0 .5-.2.5-.5l.9-9.8-.9-10.2c0-.3-.2-.5-.5-.5zm15.1 21.3c.5 0 .8-.4.9-.9l.7-9.8-.8-20.4c0-.5-.4-.9-.9-.9s-.8.4-.9.9l-.6 20.5.6 9.8c.1.4.5.8 1 .8zm15.5.1c.6 0 1.2-.5 1.2-1.2l.5-9.5-.6-23.6c0-.6-.5-1.2-1.2-1.2-.6 0-1.2.5-1.2 1.2l-.4 23.6.4 9.5c.1.6.6 1.2 1.3 1.2zm-7.8-.1c.6 0 1-.4 1-1l.6-9.6-.6-20.6c0-.6-.5-1-1-1-.6 0-1 .4-1 1L33 29.7l.5 9.6c0 .6.5 1 1.1 1zm-19.1-.1c.3 0 .6-.3.6-.6l.9-9.9-.9-9.4c0-.3-.3-.6-.6-.6s-.6.3-.6.6l-.8 9.4.8 9.9c0 .4.3.6.6.6zm-7.4-.5c.2 0 .4-.2.5-.5l1-9.5-1-9.9c0-.3-.2-.5-.5-.5-.2 0-.4.2-.5.5l-.9 9.9.9 9.5c.1.3.3.5.5.5zm30.3-31c-.6 0-1.1.5-1.1 1.1l-.5 19.9.5 9.6c0 .6.5 1.1 1.1 1.1.6 0 1.1-.5 1.1-1.1l.6-9.6-.6-19.9c0-.6-.5-1.1-1.1-1.1zM23.1 40.3c.4 0 .8-.3.8-.8l.8-9.9-.8-18.9c0-.4-.4-.8-.8-.8s-.8.3-.8.8l-.7 18.9.7 9.9c0 .5.3.8.8.8zm8.5-.9l.7-9.7-.7-21.2c0-.5-.4-.9-.9-.9s-.9.4-.9.9l-.6 21.1.6 9.7c0 .5.4.9.9.9.5.1.9-.3.9-.8zm49.9-21.9c-1.6 0-3.1.3-4.4.9C76.2 8.1 67.6 0 57 0c-2.6 0-5.1.5-7.3 1.4-.9.3-1.1.7-1.1 1.3V39c0 .7.6 1.3 1.2 1.4h31.7c6.3 0 11.4-5.1 11.4-11.4s-5-11.5-11.4-11.5zM46.3 2.7c-.7 0-1.3.6-1.3 1.3l-.5 25.8.5 9.4c0 .7.6 1.2 1.3 1.2.7 0 1.2-.6 1.3-1.3l.6-9.4-.7-25.8c0-.7-.5-1.2-1.2-1.2z" class="st0"/></symbol><symbol id="spotify-logo" viewBox="0 0 708.7 425.2"><path fill="#fff" d="M354.3 128.9a83.7 83.7 0 1 0 83.8 83.7 83.7 83.7 0 0 0-83.8-83.7zm38.4 120.9a5.6 5.6 0 0 1-4.7 2.6 5.1 5.1 0 0 1-2.9-.8c-33-19.8-72-8.3-72.4-8.2a5.6 5.6 0 0 1-6.9-3.7 5.5 5.5 0 0 1 3.7-6.8c1.7-.6 44-13.1 81.3 9.3a5.6 5.6 0 0 1 1.9 7.6zm10.4-23.2a6.5 6.5 0 0 1-5.7 3.3 6.2 6.2 0 0 1-3.2-.9c-41.4-23.8-83.2-10-83.6-9.8a6.5 6.5 0 0 1-8.2-4.1 6.4 6.4 0 0 1 4-8.2c1.9-.7 47.8-15.9 94.3 10.8a6.5 6.5 0 0 1 2.4 8.9zm4.6-22.4a8.4 8.4 0 0 1-3.7-.9c-47.7-25.1-96.8-10.1-97.3-9.9a8 8 0 0 1-10-5.2 8.1 8.1 0 0 1 5.2-10.1c2.3-.7 56-17.1 109.5 11a8 8 0 0 1-3.7 15.1z"/></symbol></svg>