<svg xmlns="http://www.w3.org/2000/svg"><symbol id="apple-music-small" viewBox="0 0 500 628.5"><style>.st0{fill:#fff}</style><path d="M402.6 332c-.7-46.6 19.4-82.9 60.4-109-23.1-33.7-57.3-52.5-102.2-56.8-16-1.5-36.5 2.3-61.5 11.5-26.8 9.9-42 14.8-45.3 14.8-7 0-20.8-4.2-40.9-12.7-20.1-8.4-37.3-12.7-51.4-12.7-23.9.4-46.1 6.9-66.5 19.8-20.6 12.8-37 30.2-49.2 52.4-15.6 27.8-23.4 60.6-23.4 98.8 0 34.4 5.8 68.7 17.4 103.1 10.8 32.9 24.6 61.7 41.3 86.6 14.8 22.6 27.9 39 39.1 49.3 16 16 32.4 23.7 49.3 22.9 10.8-.4 24.9-4.5 42.5-12 16.4-7.2 32.8-10.9 49.2-10.9 15.2 0 31.1 3.6 47.5 10.9 18.2 7.6 33.1 11.5 44.7 11.5 17.1-.7 33.1-8.2 48.1-22.4 5.2-4.6 10.9-10.9 17-18.9 7.1-9.4 13.8-18.9 20.4-28.6 5.4-8.4 10.6-16.9 15.4-25.9 5.2-9.5 9.7-19.2 13.7-29.2 1.8-4.3 3.6-8.5 5-12.9 1.5-4.5 3-8.8 4.5-13.5-13.7-6.1-26.3-14.7-37.5-25.9-24.8-24.2-37.3-54.4-37.6-90.2zm-70.5-212.1c19.8-24.9 29.7-51.5 29.7-80.2V34c0-1.9-.2-3.8-.5-5.8-13.7.7-28.4 5.2-44 13.2-15.4 8-28.2 18.2-38.2 30.4C259 95.9 249 121.6 249 149.2v5.4c0 1.7.2 3.6.5 5.5 30.9 3 58.4-10.4 82.6-40.2z" class="st0"/></symbol><symbol id="google-play-small" viewBox="0 0 500 567.5"><style>.st0{fill:#fff}</style><path d="M474.3 277.9c-1.8-7-6.8-11.7-12.8-15.1-18.1-10.4-36.1-20.5-54.1-31-30.3-17.6-60.7-35.2-91-52.7l-76.3-44-91.4-52.7-71.9-41.5C71 37.6 65.5 34 59.4 31.3c-12.4-5.8-22.3-2.6-30 7.6-3.4 4.6-4.4 10-4.4 15.7V515c0 1 .1 2 .1 3 .3 8.1 4 14.4 10.4 19 1.6 1.1 3.4 1.8 5.3 2 7.1.5 13.8-.8 20.1-4.5 18.9-11.2 37.9-22.1 57-33l81.7-47.3 85.3-49.3 83.8-48.2c28.4-16.3 56.7-32.7 85-49 4.8-2.7 9.5-5.5 13.7-8.9 6.2-5.4 9-12.5 6.9-20.9zM101.1 80.3L339 217.7l-50 49.6L100.9 80.6l.2-.3zM47.2 507.4V58.5c75.5 75 150.9 149.8 226.2 224.5L47.2 507.4zm54.7-22.5l-.4-.4L289 298l49.6 50.4-236.7 136.5zM441.4 289l-80.7 46.8c-1.2.7-1.9.7-3-.4-17-16.9-34.1-33.8-51.2-50.7l-1.6-1.4 53.5-54.5 93.4 53.8-10.4 6.4z" class="st0"/></symbol><symbol id="soundcloud-logo-small" viewBox="0 0 500 217.3"><style>.st0{fill:#fff}</style><path d="M5.9 130.2c-1.1 0-1.6.5-2.2 2.2L0 159.8l3.8 27.4c0 1.1 1.1 2.2 2.2 2.2s1.6-.5 2.2-2.2l4.3-27.4-4.3-28c-.7-1.1-1.7-1.6-2.3-1.6zm20.5-15.6c0-1.1-1.1-2.2-2.2-2.2s-2.2 1.1-2.2 2.2l-4.8 45.2 4.8 44.1c0 1.1 1.1 2.2 2.2 2.2s2.2-1.1 2.2-2.2l5.4-44.1-5.4-45.2zm77.5-41.5c-2.2 0-3.8 1.6-3.8 3.8l-3.8 82.9 3.8 53.3c0 2.2 1.6 3.8 3.8 3.8 2.2 0 3.8-1.6 3.8-3.8l4.3-53.3-4.3-82.9c-.1-2.2-1.7-3.8-3.8-3.8zm-40.4 29.1c-1.6 0-2.7 1.1-2.7 2.7l-4.3 54.9 4.3 52.7c0 1.6 1.6 2.7 2.7 2.7 1.6 0 2.7-1.1 2.7-2.7l4.8-52.7-4.8-54.9c0-1.6-1.1-2.7-2.7-2.7zm81.3 114.6c2.7 0 4.3-2.2 4.8-4.8l3.8-52.7-4.3-109.8c0-2.7-2.2-4.8-4.8-4.8s-4.3 2.2-4.8 4.8l-3.2 110.3 3.2 52.7c.4 2.2 2.6 4.3 5.3 4.3zm83.4.6c3.2 0 6.5-2.7 6.5-6.5l2.7-51.1-3.2-127c0-3.2-2.7-6.5-6.5-6.5-3.2 0-6.5 2.7-6.5 6.5l-2.2 127 2.2 51.1c.5 3.2 3.2 6.5 7 6.5zm-42-.6c3.2 0 5.4-2.2 5.4-5.4l3.2-51.7-3.2-110.9c0-3.2-2.7-5.4-5.4-5.4-3.2 0-5.4 2.2-5.4 5.4l-3.2 110.9 2.7 51.7c0 3.3 2.7 5.4 5.9 5.4zm-102.8-.5c1.6 0 3.2-1.6 3.2-3.2l4.8-53.3-4.8-50.6c0-1.6-1.6-3.2-3.2-3.2s-3.2 1.6-3.2 3.2l-4.3 50.6 4.3 53.3c0 2.1 1.6 3.2 3.2 3.2zm-39.8-2.7c1.1 0 2.2-1.1 2.7-2.7l5.4-51.1-5.4-53.3c0-1.6-1.1-2.7-2.7-2.7-1.1 0-2.2 1.1-2.7 2.7l-4.8 53.3 4.8 51.1c.5 1.6 1.6 2.7 2.7 2.7zM206.7 46.7c-3.2 0-5.9 2.7-5.9 5.9l-2.7 107.1 2.7 51.7c0 3.2 2.7 5.9 5.9 5.9s5.9-2.7 5.9-5.9l3.2-51.7-3.2-107.1c0-3.2-2.7-5.9-5.9-5.9zm-82.4 170.1c2.2 0 4.3-1.6 4.3-4.3l4.3-53.3-4.3-101.7c0-2.2-2.2-4.3-4.3-4.3-2.2 0-4.3 1.6-4.3 4.3l-3.8 101.7 3.8 53.3c0 2.7 1.6 4.3 4.3 4.3zm45.8-4.8l3.8-52.2-3.8-114.1c0-2.7-2.2-4.8-4.8-4.8-2.7 0-4.8 2.2-4.8 4.8l-3.2 113.6 3.2 52.2c0 2.7 2.2 4.8 4.8 4.8 2.6.5 4.8-1.6 4.8-4.3zM438.6 94.1c-8.6 0-16.7 1.6-23.7 4.8-4.8-55.4-51.1-99-108.2-99-14 0-27.4 2.7-39.3 7.5-4.8 1.6-5.9 3.8-5.9 7v195.4c0 3.8 3.2 7 6.5 7.5h170.6c33.9 0 61.4-27.4 61.4-61.4s-26.9-61.8-61.4-61.8zM249.2 14.5c-3.8 0-7 3.2-7 7l-2.7 138.9 2.7 50.6c0 3.8 3.2 6.5 7 6.5s6.5-3.2 7-7l3.2-50.6L255.6 21c.1-3.9-2.6-6.5-6.4-6.5z" class="st0"/></symbol><symbol id="spotify-logo-small" viewBox="0 0 500 500"><style>.st0{fill:#fff}</style><path d="M249.8 25c-124.3.2-225 101-224.8 225.3.2 124.3 101 225 225.2 224.8C374.5 474.9 475 374.2 475 250c0-124.3-100.7-225-225-225h-.2zM353 350c-2.8 4.3-7.5 6.9-12.6 7-2.8.1-5.5-.6-7.8-2.2-88.8-53.2-193.6-22.3-194.6-22.1-7.8 2.3-16.1-2.2-18.5-10-2.3-7.8 2.2-15.9 10-18.3 4.6-1.6 118.3-35.2 218.6 25 6.8 4.5 9 13.6 4.9 20.6zm28-62.4c-3.2 5.5-9 8.9-15.3 8.9-3.1 0-6-.8-8.6-2.4-111.4-64-223.7-26.9-224.8-26.4-9.1 3.1-19-1.9-22.1-11-3.2-9 1.5-18.8 10.5-22 .1 0 .2-.1.3-.1 5.1-1.9 128.5-42.8 253.6 29.1 8.4 4.8 11.2 15.5 6.4 23.9zm12.3-60.2c-3.4 0-6.8-.9-10-2.4-128.3-67.5-260.2-27.2-261.6-26.6-11.3 3.5-23.3-2.7-26.9-14-3.5-11.3 2.7-23.4 14-27.2 6.2-1.9 150.6-46 294.4 29.6 10.5 5.5 14.7 18.5 9.2 29-3.6 7.2-11 11.6-19.1 11.6z" class="st0"/></symbol></svg>