<svg xmlns="http://www.w3.org/2000/svg"><symbol id="apple-music" viewBox="0 0 500 628.5"><style>.st0{fill:#fff}</style><path d="M417.6 333.8c-.8-51.2 21.3-91.1 66.3-119.7-25.4-37-62.9-57.7-112.3-62.4-17.6-1.7-40.1 2.5-67.6 12.6-29.4 10.9-46.1 16.3-49.8 16.3-7.7 0-22.8-4.6-44.9-13.9-22.1-9.2-41-13.9-56.5-13.9-26.2.4-50.6 7.6-73.1 21.7-22.6 14.1-40.6 33.2-54 57.6C8.6 262.6 0 298.7 0 340.6c0 37.8 6.4 75.5 19.1 113.3C31 490 46.1 521.7 64.5 549c16.3 24.8 30.7 42.8 43 54.2 17.6 17.6 35.6 26 54.1 25.2 11.9-.4 27.4-4.9 46.7-13.2 18-7.9 36-12 54-12 16.7 0 34.2 4 52.2 12 20 8.4 36.4 12.6 49.1 12.6 18.8-.8 36.4-9 52.8-24.6 5.7-5.1 12-12 18.7-20.8 7.8-10.3 15.2-20.8 22.4-31.4 5.9-9.2 11.6-18.6 16.9-28.4 5.7-10.4 10.7-21.1 15-32.1 2-4.7 3.9-9.3 5.5-14.2s3.3-9.7 4.9-14.8c-15.1-6.7-28.9-16.2-41.2-28.4-26.9-26.8-40.6-60-41-99.3zm-77.4-233c21.7-27.3 32.6-56.6 32.6-88.1V6.4c0-2.1-.2-4.2-.6-6.4-15.1.8-31.2 5.7-48.3 14.5-16.9 8.8-31 20-42 33.4-22.1 26.5-33.1 54.7-33.1 85v5.9c0 1.9.2 3.9.6 6 34 3.4 64.2-11.3 90.8-44z" class="st0"/></symbol><symbol id="google-play" viewBox="0 0 500 567.5"><style>.st0{fill:#fff}</style><path d="M499.2 277.3c-2-7.8-7.5-13-14.2-16.8-20.1-11.5-40.1-22.8-60.1-34.4-33.7-19.5-67.4-39.1-101.1-58.6L239 118.6 137.5 60 57.6 13.9C51.2 10.2 45 6.2 38.3 3.2 24.5-3.2 13.5.3 5 11.6c-3.9 5.2-5 11.2-5 17.6v511.5c0 1.1.1 2.2.1 3.3.3 9 4.4 16 11.6 21.1 1.8 1.2 3.8 2 5.9 2.2 7.9.6 15.3-.9 22.3-5 21-12.4 42.1-24.5 63.3-36.7l90.8-52.5 94.8-54.8 93.1-53.6c31.5-18.1 63-36.3 94.4-54.4 5.3-3 10.6-6.1 15.2-9.9 6.9-5.9 10.1-13.8 7.7-23.1zM84.6 57.7l264.3 152.7-55.5 55.1L84.3 58l.3-.3zM24.7 532.3V33.5c83.9 83.3 167.7 166.4 251.3 249.4L24.7 532.3zm60.8-25l-.4-.4 208.3-207.2 55.1 56-263 151.6zm377.2-217.7l-89.7 52c-1.3.8-2.1.8-3.3-.4-18.9-18.8-37.9-37.6-56.9-56.3l-1.8-1.5 59.4-60.5 103.8 59.8-11.5 6.9z" class="st0"/></symbol><symbol id="soundcloud-logo" viewBox="0 0 500 217.3"><style>.st0{fill:#fff}</style><path d="M5.9 130.2c-1.1 0-1.6.5-2.2 2.2L0 159.8l3.8 27.4c0 1.1 1.1 2.2 2.2 2.2s1.6-.5 2.2-2.2l4.3-27.4-4.3-28c-.7-1.1-1.7-1.6-2.3-1.6zm20.5-15.6c0-1.1-1.1-2.2-2.2-2.2s-2.2 1.1-2.2 2.2l-4.8 45.2 4.8 44.1c0 1.1 1.1 2.2 2.2 2.2s2.2-1.1 2.2-2.2l5.4-44.1-5.4-45.2zm77.5-41.5c-2.2 0-3.8 1.6-3.8 3.8l-3.8 82.9 3.8 53.3c0 2.2 1.6 3.8 3.8 3.8 2.2 0 3.8-1.6 3.8-3.8l4.3-53.3-4.3-82.9c-.1-2.2-1.7-3.8-3.8-3.8zm-40.4 29.1c-1.6 0-2.7 1.1-2.7 2.7l-4.3 54.9 4.3 52.7c0 1.6 1.6 2.7 2.7 2.7 1.6 0 2.7-1.1 2.7-2.7l4.8-52.7-4.8-54.9c0-1.6-1.1-2.7-2.7-2.7zm81.3 114.6c2.7 0 4.3-2.2 4.8-4.8l3.8-52.7-4.3-109.8c0-2.7-2.2-4.8-4.8-4.8s-4.3 2.2-4.8 4.8l-3.2 110.3 3.2 52.7c.4 2.2 2.6 4.3 5.3 4.3zm83.4.6c3.2 0 6.5-2.7 6.5-6.5l2.7-51.1-3.2-127c0-3.2-2.7-6.5-6.5-6.5-3.2 0-6.5 2.7-6.5 6.5l-2.2 127 2.2 51.1c.5 3.2 3.2 6.5 7 6.5zm-42-.6c3.2 0 5.4-2.2 5.4-5.4l3.2-51.7-3.2-110.9c0-3.2-2.7-5.4-5.4-5.4-3.2 0-5.4 2.2-5.4 5.4l-3.2 110.9 2.7 51.7c0 3.3 2.7 5.4 5.9 5.4zm-102.8-.5c1.6 0 3.2-1.6 3.2-3.2l4.8-53.3-4.8-50.6c0-1.6-1.6-3.2-3.2-3.2s-3.2 1.6-3.2 3.2l-4.3 50.6 4.3 53.3c0 2.1 1.6 3.2 3.2 3.2zm-39.8-2.7c1.1 0 2.2-1.1 2.7-2.7l5.4-51.1-5.4-53.3c0-1.6-1.1-2.7-2.7-2.7-1.1 0-2.2 1.1-2.7 2.7l-4.8 53.3 4.8 51.1c.5 1.6 1.6 2.7 2.7 2.7zM206.7 46.7c-3.2 0-5.9 2.7-5.9 5.9l-2.7 107.1 2.7 51.7c0 3.2 2.7 5.9 5.9 5.9s5.9-2.7 5.9-5.9l3.2-51.7-3.2-107.1c0-3.2-2.7-5.9-5.9-5.9zm-82.4 170.1c2.2 0 4.3-1.6 4.3-4.3l4.3-53.3-4.3-101.7c0-2.2-2.2-4.3-4.3-4.3-2.2 0-4.3 1.6-4.3 4.3l-3.8 101.7 3.8 53.3c0 2.7 1.6 4.3 4.3 4.3zm45.8-4.8l3.8-52.2-3.8-114.1c0-2.7-2.2-4.8-4.8-4.8-2.7 0-4.8 2.2-4.8 4.8l-3.2 113.6 3.2 52.2c0 2.7 2.2 4.8 4.8 4.8 2.6.5 4.8-1.6 4.8-4.3zM438.6 94.1c-8.6 0-16.7 1.6-23.7 4.8-4.8-55.4-51.1-99-108.2-99-14 0-27.4 2.7-39.3 7.5-4.8 1.6-5.9 3.8-5.9 7v195.4c0 3.8 3.2 7 6.5 7.5h170.6c33.9 0 61.4-27.4 61.4-61.4s-26.9-61.8-61.4-61.8zM249.2 14.5c-3.8 0-7 3.2-7 7l-2.7 138.9 2.7 50.6c0 3.8 3.2 6.5 7 6.5s6.5-3.2 7-7l3.2-50.6L255.6 21c.1-3.9-2.6-6.5-6.4-6.5z" class="st0"/></symbol><symbol id="spotify-logo" viewBox="0 0 500 500"><style>.st0{fill:#fff}</style><path d="M249.8 0C111.7.2-.1 112.2.1 250.3S112.3 500.2 250.3 500c138-.2 249.7-112 249.7-250C500 111.9 388.1 0 250 0h-.2zm114.6 361.1c-3.1 4.8-8.3 7.7-14 7.8-3.1.1-6.1-.7-8.7-2.4-98.6-59.1-215.1-24.8-216.2-24.5-8.7 2.5-17.9-2.4-20.6-11.1-2.5-8.7 2.4-17.7 11.1-20.3 5.1-1.8 131.4-39.1 242.8 27.8 7.7 4.8 10.2 14.9 5.6 22.7zm31.1-69.3c-3.5 6.1-10 9.9-17 9.9-3.4 0-6.7-.9-9.6-2.7-123.7-71.1-248.5-29.9-249.7-29.3-10.1 3.4-21.1-2.1-24.5-12.2-3.5-10 1.7-20.9 11.7-24.4.1 0 .2-.1.3-.1 5.7-2.1 142.8-47.5 281.7 32.3 9.3 5.3 12.5 17.1 7.1 26.5zm13.7-66.9c-3.8 0-7.6-1-11.1-2.7-142.5-75-289.1-30.2-290.6-29.6-12.5 3.9-25.9-3-29.9-15.5-3.9-12.6 3-26 15.5-30.2 6.9-2.1 167.3-51.1 327.1 32.9 11.7 6.1 16.3 20.5 10.2 32.2-4 8-12.2 12.9-21.2 12.9z" class="st0"/></symbol></svg>